<?xml version="1.0" encoding="UTF-8"?>
<svg width="511px" height="252px" viewBox="0 0 511 252" version="1.1" xmlns="http://www.w3.org/2000/svg" xmlns:xlink="http://www.w3.org/1999/xlink">
    <title>mobile swoop cropped svg</title>
    <defs>
        <rect id="path-1" x="0" y="0" width="511" height="252"></rect>
    </defs>
    <g id="mobile-swoop-cropped-svg" stroke="none" stroke-width="1" fill="none" fill-rule="evenodd">
        <g id="Group-4">
            <mask id="mask-2" fill="white">
                <use xlink:href="#path-1"></use>
            </mask>
            <g id="Mask"></g>
            <g mask="url(#mask-2)" id="Path-2">
                <g transform="translate(-236.000000, -32.000000)">
                    <path d="M8,438.547891 C41.4505298,466.314067 92.3111145,440.780648 160.581754,361.947633 C262.987714,243.698111 359.66792,183.944657 420.101886,202.184493 C480.535853,220.42433 515.392427,228.919251 535.635943,148.026865 C555.87946,67.134479 682.681445,-6.16001805 755.950922,55.9246745 C804.797239,97.3144696 823.661182,78.6729114 812.542748,0 C930.963245,115.920386 979.479763,189.163406 958.092302,219.729061 C926.01111,265.577544 863.692402,216.396374 778.320043,407.526976 C692.947684,598.657579 584.671837,684.277182 545.515031,740.237702 C506.358225,796.198222 414.567688,783.980901 352.080496,788.931962 C310.422368,792.23267 195.728869,675.437979 8,438.547891 Z" fill="#CBC9FF"></path>
                    <path d="M0,488.660782 C95.9967864,501.359016 152.542646,481.698815 169.637577,429.680178 C195.279975,351.652223 330.47434,256.340328 398.425588,249.903415 C466.376837,243.466503 487.530852,315.698329 540.408246,240.499307 C593.285639,165.300284 640.464516,51.3055715 737.834888,86.2289679 C802.748469,109.511232 852.139609,83.7682429 886.00831,9 C1016.60959,136.134792 1070.14364,216.43593 1046.61044,249.903415 C1011.31065,300.104643 942.594245,246.152912 848.729478,455.479706 C754.864712,664.8065 635.653168,758.503915 592.567884,819.777193 C549.482601,881.05047 448.332134,867.568065 379.487049,872.927285 C333.590326,876.500099 207.094643,748.411264 0,488.660782 Z" fill="#FFCD66"></path>
                    <path d="M487.275374,874.88492 C596.774975,853.944229 560.884979,781.343587 379.605386,657.082994 C107.685997,470.692105 311.303354,550.004025 309.844935,421.973945 C308.386516,293.943866 546.605877,429.813154 567.544255,333.756372 C588.482634,237.69959 671.600148,86.564643 745.02412,148.4409 C793.973434,189.691737 827.033731,189.793839 844.205011,148.747204 C962.87945,264.273422 1011.50702,337.260252 990.087721,367.707692 C957.958771,413.378853 895.509646,364.361638 810.02902,554.766161 C724.548395,745.170683 616.092539,830.44602 576.877442,886.19011 C537.662345,941.934199 445.696113,929.736894 383.092929,934.652786 C341.357472,937.930047 376.084954,918.007425 487.275374,874.88492 Z" fill="#FFDD99"></path>
                </g>
            </g>
        </g>
    </g>
</svg>